<svg width="20" height="20" viewBox="0 0 20 20" fill="none" xmlns="http://www.w3.org/2000/svg">
<path d="M4.17835 14.9956C5.07974 14.3489 6.00657 13.8486 6.95883 13.4946C7.91125 13.1406 8.9247 12.9636 9.99919 12.9636C11.0737 12.9636 12.0896 13.1406 13.0471 13.4946C14.0046 13.8486 14.934 14.3489 15.8354 14.9956C16.4618 14.2368 16.9188 13.4449 17.2065 12.6199C17.4942 11.7949 17.638 10.9215 17.638 9.9998C17.638 7.84563 16.9034 6.03392 15.4343 4.56465C13.9651 3.09554 12.1534 2.36098 9.99919 2.36098C7.84502 2.36098 6.0333 3.09554 4.56404 4.56465C3.09493 6.03392 2.36037 7.84563 2.36037 9.9998C2.36037 10.9215 2.50673 11.7949 2.79946 12.6199C3.09233 13.4449 3.55196 14.2368 4.17835 14.9956ZM9.99644 10.7636C9.10712 10.7636 8.35812 10.4584 7.74946 9.84809C7.14094 9.23759 6.83669 8.48768 6.83669 7.59836C6.83669 6.70904 7.14194 5.96012 7.75244 5.35161C8.36278 4.74294 9.11262 4.43861 10.0019 4.43861C10.8913 4.43861 11.6402 4.74386 12.2489 5.35436C12.8574 5.96486 13.1617 6.71477 13.1617 7.60409C13.1617 8.49341 12.8564 9.24232 12.2459 9.85084C11.6356 10.4594 10.8858 10.7636 9.99644 10.7636ZM10.0063 19.1665C8.74373 19.1665 7.55482 18.9258 6.43954 18.4446C5.32426 17.9633 4.35153 17.3077 3.52133 16.4777C2.69129 15.6475 2.03564 14.6759 1.55439 13.5631C1.07314 12.4503 0.83252 11.2611 0.83252 9.99567C0.83252 8.73037 1.07314 7.5426 1.55439 6.43236C2.03564 5.32228 2.69129 4.35214 3.52133 3.52194C4.35153 2.6919 5.32304 2.03625 6.43587 1.555C7.54871 1.07375 8.73785 0.83313 10.0033 0.83313C11.2686 0.83313 12.4564 1.07375 13.5666 1.555C14.6767 2.03625 15.6468 2.6919 16.477 3.52194C17.3071 4.35214 17.9627 5.32243 18.444 6.43282C18.9252 7.54336 19.1659 8.72998 19.1659 9.99269C19.1659 11.2552 18.9252 12.4442 18.444 13.5594C17.9627 14.6747 17.3071 15.6475 16.477 16.4777C15.6468 17.3077 14.6766 17.9633 13.5662 18.4446C12.4556 18.9258 11.269 19.1665 10.0063 19.1665ZM9.99919 17.6386C10.8292 17.6386 11.6313 17.5177 12.4054 17.2758C13.1796 17.034 13.9257 16.6355 14.6437 16.0803C13.9257 15.566 13.177 15.1726 12.3979 14.9001C11.6187 14.6277 10.8191 14.4915 9.99919 14.4915C9.17923 14.4915 8.37967 14.6277 7.6005 14.9001C6.82133 15.1726 6.07272 15.566 5.35467 16.0803C6.07272 16.6355 6.81881 17.034 7.59294 17.2758C8.36706 17.5177 9.16914 17.6386 9.99919 17.6386ZM9.99919 9.23598C10.4778 9.23598 10.8699 9.08321 11.1755 8.77765C11.4811 8.4721 11.6338 8.07992 11.6338 7.60111C11.6338 7.12246 11.4811 6.73035 11.1755 6.4248C10.8699 6.11924 10.4778 5.96646 9.99919 5.96646C9.52053 5.96646 9.12843 6.11924 8.82287 6.4248C8.51732 6.73035 8.36454 7.12246 8.36454 7.60111C8.36454 8.07992 8.51732 8.4721 8.82287 8.77765C9.12843 9.08321 9.52053 9.23598 9.99919 9.23598Z" fill="#7A7A7A"/>
</svg>
