<svg width="18" height="18" viewBox="0 0 18 18" fill="none" xmlns="http://www.w3.org/2000/svg">
<path d="M4.41667 13.5833H6.25V9H4.41667V13.5833ZM11.75 13.5833H13.5833V4.41667H11.75V13.5833ZM8.08333 13.5833H9.91667V10.8333H8.08333V13.5833ZM8.08333 9H9.91667V7.16667H8.08333V9ZM2.58333 17.25C2.07917 17.25 1.64757 17.0705 1.28854 16.7115C0.929514 16.3524 0.75 15.9208 0.75 15.4167V2.58333C0.75 2.07917 0.929514 1.64757 1.28854 1.28854C1.64757 0.929514 2.07917 0.75 2.58333 0.75H15.4167C15.9208 0.75 16.3524 0.929514 16.7115 1.28854C17.0705 1.64757 17.25 2.07917 17.25 2.58333V15.4167C17.25 15.9208 17.0705 16.3524 16.7115 16.7115C16.3524 17.0705 15.9208 17.25 15.4167 17.25H2.58333ZM2.58333 15.4167H15.4167V2.58333H2.58333V15.4167Z" fill="#7A7A7A"/>
</svg>
