<svg width="74" height="74" viewBox="0 0 74 74" fill="none" xmlns="http://www.w3.org/2000/svg">
<mask id="mask0_1_577" style="mask-type:alpha" maskUnits="userSpaceOnUse" x="0" y="0" width="74" height="74">
<rect width="74" height="74" fill="#D9D9D9"/>
</mask>
<g mask="url(#mask0_1_577)">
<path d="M9.24992 64.75C7.55409 64.75 6.10235 64.1462 4.89471 62.9385C3.68707 61.7309 3.08325 60.2791 3.08325 58.5833V21.5833C3.08325 19.8875 3.68707 18.4357 4.89471 17.2281C6.10235 16.0205 7.55409 15.4166 9.24992 15.4166H18.9624L24.6666 9.24998H43.1666V15.4166H27.3645L21.7374 21.5833H9.24992V58.5833H58.5833V30.8333H64.7499V58.5833C64.7499 60.2791 64.1461 61.7309 62.9385 62.9385C61.7308 64.1462 60.2791 64.75 58.5833 64.75H9.24992ZM58.5833 21.5833V15.4166H52.4166V9.24998H58.5833V3.08331H64.7499V9.24998H70.9166V15.4166H64.7499V21.5833H58.5833ZM33.9166 53.9583C37.7708 53.9583 41.0468 52.6094 43.7447 49.9114C46.4426 47.2135 47.7916 43.9375 47.7916 40.0833C47.7916 36.2291 46.4426 32.9531 43.7447 30.2552C41.0468 27.5573 37.7708 26.2083 33.9166 26.2083C30.0624 26.2083 26.7864 27.5573 24.0885 30.2552C21.3905 32.9531 20.0416 36.2291 20.0416 40.0833C20.0416 43.9375 21.3905 47.2135 24.0885 49.9114C26.7864 52.6094 30.0624 53.9583 33.9166 53.9583ZM33.9166 47.7916C31.7583 47.7916 29.9339 47.0465 28.4437 45.5562C26.9534 44.066 26.2083 42.2416 26.2083 40.0833C26.2083 37.925 26.9534 36.1007 28.4437 34.6104C29.9339 33.1201 31.7583 32.375 33.9166 32.375C36.0749 32.375 37.8992 33.1201 39.3895 34.6104C40.8798 36.1007 41.6249 37.925 41.6249 40.0833C41.6249 42.2416 40.8798 44.066 39.3895 45.5562C37.8992 47.0465 36.0749 47.7916 33.9166 47.7916Z" fill="#8F9091" fill-opacity="0.25"/>
</g>
</svg>
