<svg width="22" height="22" viewBox="0 0 22 22" fill="none" xmlns="http://www.w3.org/2000/svg">
<mask id="mask0_1_157" style="mask-type:alpha" maskUnits="userSpaceOnUse" x="0" y="0" width="22" height="22">
<rect width="22" height="22" fill="#D9D9D9"/>
</mask>
<g mask="url(#mask0_1_157)">
<path d="M7.14893 8.68556L10.5922 3.11681C10.6846 2.96404 10.8002 2.85327 10.9388 2.78452C11.0775 2.71577 11.2239 2.6814 11.3779 2.6814C11.532 2.6814 11.6783 2.71577 11.817 2.78452C11.9557 2.85327 12.0712 2.96404 12.1636 3.11681L15.6069 8.68556C15.6993 8.83834 15.7456 8.99876 15.7456 9.16681C15.7456 9.33487 15.7071 9.48765 15.63 9.62515C15.553 9.76265 15.4451 9.87341 15.3065 9.95744C15.1678 10.0415 15.0061 10.0835 14.8212 10.0835H7.93464C7.74977 10.0835 7.58801 10.0415 7.44935 9.95744C7.31069 9.87341 7.20285 9.76265 7.12582 9.62515C7.04879 9.48765 7.01027 9.33487 7.01027 9.16681C7.01027 8.99876 7.05649 8.83834 7.14893 8.68556ZM16.462 20.1668C15.3065 20.1668 14.3243 19.7658 13.5155 18.9637C12.7067 18.1616 12.3023 17.1876 12.3023 16.0418C12.3023 14.896 12.7067 13.922 13.5155 13.1199C14.3243 12.3179 15.3065 11.9168 16.462 11.9168C17.6174 11.9168 18.5996 12.3179 19.4084 13.1199C20.2172 13.922 20.6216 14.896 20.6216 16.0418C20.6216 17.1876 20.2172 18.1616 19.4084 18.9637C18.5996 19.7658 17.6174 20.1668 16.462 20.1668ZM3.05859 18.7918V13.2918C3.05859 13.0321 3.14718 12.8144 3.32435 12.6387C3.50152 12.463 3.72106 12.3751 3.98296 12.3751H9.52918C9.79109 12.3751 10.0106 12.463 10.1878 12.6387C10.365 12.8144 10.4536 13.0321 10.4536 13.2918V18.7918C10.4536 19.0515 10.365 19.2692 10.1878 19.4449C10.0106 19.6206 9.79109 19.7085 9.52918 19.7085H3.98296C3.72106 19.7085 3.50152 19.6206 3.32435 19.4449C3.14718 19.2692 3.05859 19.0515 3.05859 18.7918ZM16.462 18.3335C17.109 18.3335 17.6559 18.112 18.1027 17.6689C18.5495 17.2258 18.7729 16.6835 18.7729 16.0418C18.7729 15.4001 18.5495 14.8578 18.1027 14.4147C17.6559 13.9717 17.109 13.7501 16.462 13.7501C15.8149 13.7501 15.268 13.9717 14.8212 14.4147C14.3744 14.8578 14.151 15.4001 14.151 16.0418C14.151 16.6835 14.3744 17.2258 14.8212 17.6689C15.268 18.112 15.8149 18.3335 16.462 18.3335ZM4.90733 17.8751H8.60481V14.2085H4.90733V17.8751ZM9.5754 8.25015H13.1804L11.3779 5.36265L9.5754 8.25015Z" fill="white"/>
</g>
</svg>
