<svg width="22" height="22" viewBox="0 0 22 22" fill="none" xmlns="http://www.w3.org/2000/svg">
<mask id="mask0_1_169" style="mask-type:alpha" maskUnits="userSpaceOnUse" x="-2" y="-2" width="26" height="26">
<rect x="-1.22168" y="-1.22229" width="24.4444" height="24.4444" fill="#D9D9D9"/>
</mask>
<g mask="url(#mask0_1_169)">
<path d="M5.21671 17.1111L2.85443 19.4537C2.52919 19.7762 2.15687 19.8484 1.73748 19.6701C1.31809 19.4919 1.1084 19.1736 1.1084 18.7153V2.85186C1.1084 2.29167 1.30953 1.81212 1.71181 1.4132C2.11408 1.01428 2.59766 0.814819 3.16255 0.814819H19.5958C20.1607 0.814819 20.6443 1.01428 21.0465 1.4132C21.4488 1.81212 21.6499 2.29167 21.6499 2.85186V15.0741C21.6499 15.6343 21.4488 16.1138 21.0465 16.5127C20.6443 16.9117 20.1607 17.1111 19.5958 17.1111H5.21671ZM4.34369 15.0741H19.5958V2.85186H3.16255V16.2199L4.34369 15.0741Z" fill="#7A7A7A"/>
</g>
</svg>
