<svg width="17" height="20" viewBox="0 0 17 20" fill="none" xmlns="http://www.w3.org/2000/svg">
<path d="M1.56141 19.1668C1.2995 19.1668 1.07226 19.0713 0.879686 18.8803C0.687109 18.6893 0.59082 18.464 0.59082 18.2043V15.798C0.59082 14.423 1.02219 13.2084 1.88494 12.1543C2.74768 11.1001 3.85693 10.4279 5.21267 10.1376C4.59642 10.5654 4.11883 11.1039 3.7799 11.7532C3.44096 12.4025 3.27149 13.1015 3.27149 13.8501V18.2043C3.27149 18.3723 3.2946 18.5404 3.34082 18.7084C3.38704 18.8765 3.46407 19.0293 3.57191 19.1668H1.56141ZM4.95847 19.1668C4.69656 19.1668 4.46932 19.0713 4.27674 18.8803C4.08417 18.6893 3.98788 18.464 3.98788 18.2043V13.8501C3.98788 12.7807 4.36918 11.8716 5.13179 11.123C5.89439 10.3744 6.81491 10.0001 7.89334 10.0001H12.261C13.3394 10.0001 14.2561 10.3744 15.011 11.123C15.7659 11.8716 16.1433 12.7807 16.1433 13.8501V15.3168C16.1433 16.3862 15.7659 17.2952 15.011 18.0438C14.2561 18.7925 13.3394 19.1668 12.261 19.1668H4.95847ZM8.37864 8.0751C7.36183 8.0751 6.49908 7.72371 5.7904 7.02093C5.08172 6.31816 4.72738 5.4626 4.72738 4.45427C4.72738 3.44594 5.08172 2.59038 5.7904 1.8876C6.49908 1.18482 7.36183 0.833435 8.37864 0.833435C9.39544 0.833435 10.2582 1.18482 10.9669 1.8876C11.6756 2.59038 12.0299 3.44594 12.0299 4.45427C12.0299 5.4626 11.6756 6.31816 10.9669 7.02093C10.2582 7.72371 9.39544 8.0751 8.37864 8.0751Z" fill="#7A7A7A"/>
</svg>
