<svg width="22" height="22" viewBox="0 0 22 22" fill="none" xmlns="http://www.w3.org/2000/svg">
<mask id="mask0_1_183" style="mask-type:alpha" maskUnits="userSpaceOnUse" x="-2" y="-2" width="26" height="26">
<rect x="-1.22168" y="-1.22229" width="24.4444" height="24.4444" fill="#D9D9D9"/>
</mask>
<g mask="url(#mask0_1_183)">
<path d="M2.82028 21.1852C2.34954 21.1852 1.94649 21.019 1.61115 20.6866C1.27598 20.3541 1.1084 19.9544 1.1084 19.4876V10.0663C1.1084 9.72253 1.20255 9.40747 1.39084 9.12109C1.57914 8.83455 1.83591 8.62338 2.16115 8.48758L7.0996 6.41667C7.38496 6.30345 7.65602 6.32467 7.91279 6.48033C8.16956 6.63599 8.29794 6.8694 8.29794 7.18056V7.94445L12.2607 6.36575C12.546 6.25252 12.8128 6.28121 13.061 6.45181C13.3092 6.62224 13.4333 6.85667 13.4333 7.1551V8.96297H21.65V19.4876C21.65 19.9544 21.4824 20.3541 21.1472 20.6866C20.8119 21.019 20.4088 21.1852 19.9381 21.1852H2.82028ZM2.82028 19.4876H19.9381V10.6639H11.7214V8.40278L6.58606 10.4398V8.43665L2.82028 10.0917V19.4876ZM10.5234 17.1111H12.235V13.037H10.5234V17.1111ZM6.41505 17.1111H8.12668V13.037H6.41505V17.1111ZM14.6317 17.1111H16.3433V13.037H14.6317V17.1111ZM21.65 8.96297H16.8568L17.7984 1.55325C17.8326 1.34394 17.927 1.1685 18.0814 1.02693C18.2358 0.885522 18.4182 0.814819 18.6285 0.814819H19.8782C20.0888 0.814819 20.2713 0.885522 20.4257 1.02693C20.5799 1.1685 20.6741 1.34394 20.7084 1.55325L21.65 8.96297Z" fill="#7A7A7A"/>
</g>
</svg>
