<svg width="22" height="22" viewBox="0 0 22 22" fill="none" xmlns="http://www.w3.org/2000/svg">
<mask id="mask0_1_176" style="mask-type:alpha" maskUnits="userSpaceOnUse" x="-2" y="-2" width="26" height="26">
<rect x="-1.22168" y="-1.22229" width="24.4444" height="24.4444" fill="#D9D9D9"/>
</mask>
<g mask="url(#mask0_1_176)">
<path d="M4.18963 21.1852C3.62474 21.1852 3.14116 20.9857 2.73888 20.5868C2.33661 20.1879 2.13548 19.7083 2.13548 19.1482V7.66436C1.82735 7.47763 1.57914 7.23573 1.39084 6.93866C1.20255 6.64159 1.1084 6.29784 1.1084 5.90741V2.85186C1.1084 2.29167 1.30953 1.81212 1.71181 1.4132C2.11408 1.01428 2.59766 0.814819 3.16255 0.814819H19.5958C20.1607 0.814819 20.6443 1.01428 21.0465 1.4132C21.4488 1.81212 21.6499 2.29167 21.6499 2.85186V5.90741C21.6499 6.29784 21.5558 6.64159 21.3675 6.93866C21.1792 7.23573 20.931 7.47763 20.6229 7.66436V19.1482C20.6229 19.7083 20.4217 20.1879 20.0195 20.5868C19.6172 20.9857 19.1336 21.1852 18.5687 21.1852H4.18963ZM4.18963 7.94445V19.1482H18.5687V7.94445H4.18963ZM3.16255 5.90741H19.5958V2.85186H3.16255V5.90741ZM9.32502 13.037H13.4333C13.7243 13.037 13.9683 12.9394 14.1651 12.7442C14.362 12.549 14.4604 12.3071 14.4604 12.0185C14.4604 11.7299 14.362 11.488 14.1651 11.2928C13.9683 11.0976 13.7243 11 13.4333 11H9.32502C9.03401 11 8.79008 11.0976 8.59323 11.2928C8.39637 11.488 8.29794 11.7299 8.29794 12.0185C8.29794 12.3071 8.39637 12.549 8.59323 12.7442C8.79008 12.9394 9.03401 13.037 9.32502 13.037Z" fill="#7A7A7A"/>
</g>
</svg>
