<svg width="24" height="25" viewBox="0 0 24 25" fill="none" xmlns="http://www.w3.org/2000/svg">
<mask id="mask0_1_1623" style="mask-type:alpha" maskUnits="userSpaceOnUse" x="0" y="0" width="24" height="25">
<rect y="0.5" width="24" height="24" fill="#D9D9D9"/>
</mask>
<g mask="url(#mask0_1_1623)">
<path d="M12.0015 22.4996C11.4515 22.4996 10.9806 22.3038 10.589 21.9121C10.1973 21.5205 10.0015 21.0496 10.0015 20.4996H14.0015C14.0015 21.0496 13.8056 21.5205 13.414 21.9121C13.0223 22.3038 12.5515 22.4996 12.0015 22.4996ZM5.00146 19.4996C4.71813 19.4996 4.48063 19.4038 4.28896 19.2121C4.0973 19.0205 4.00146 18.783 4.00146 18.4996C4.00146 18.2163 4.0973 17.9788 4.28896 17.7871C4.48063 17.5955 4.71813 17.4996 5.00146 17.4996H6.00146V10.4996C6.00146 9.1163 6.41813 7.88713 7.25146 6.81213C8.0848 5.73713 9.16813 5.03297 10.5015 4.69963V3.99963C10.5015 3.58297 10.6473 3.2288 10.939 2.93713C11.2306 2.64547 11.5848 2.49963 12.0015 2.49963C12.4181 2.49963 12.7723 2.64547 13.064 2.93713C13.3556 3.2288 13.5015 3.58297 13.5015 3.99963V4.32463C13.3181 4.6913 13.1848 5.0663 13.1015 5.44963C13.0181 5.83297 12.9848 6.22463 13.0015 6.62463C12.8348 6.5913 12.6723 6.56213 12.514 6.53713C12.3556 6.51213 12.1848 6.49963 12.0015 6.49963C10.9015 6.49963 9.9598 6.8913 9.17647 7.67463C8.39313 8.45797 8.00146 9.39963 8.00146 10.4996V17.4996H16.0015V11.0746C16.3015 11.208 16.6223 11.3121 16.964 11.3871C17.3056 11.4621 17.6515 11.4996 18.0015 11.4996V17.4996H19.0015C19.2848 17.4996 19.5223 17.5955 19.714 17.7871C19.9056 17.9788 20.0015 18.2163 20.0015 18.4996C20.0015 18.783 19.9056 19.0205 19.714 19.2121C19.5223 19.4038 19.2848 19.4996 19.0015 19.4996H5.00146ZM18.0015 9.49963C17.1681 9.49963 16.4598 9.20797 15.8765 8.62463C15.2931 8.0413 15.0015 7.33297 15.0015 6.49963C15.0015 5.6663 15.2931 4.95797 15.8765 4.37463C16.4598 3.7913 17.1681 3.49963 18.0015 3.49963C18.8348 3.49963 19.5431 3.7913 20.1265 4.37463C20.7098 4.95797 21.0015 5.6663 21.0015 6.49963C21.0015 7.33297 20.7098 8.0413 20.1265 8.62463C19.5431 9.20797 18.8348 9.49963 18.0015 9.49963Z" fill="#202123" fill-opacity="0.75"/>
</g>
</svg>
