<svg width="17" height="17" viewBox="0 0 17 17" fill="none" xmlns="http://www.w3.org/2000/svg">
<path d="M15.6332 16.75L9.85817 10.975C9.39984 11.3417 8.87275 11.6319 8.27692 11.8458C7.68109 12.0597 7.04706 12.1667 6.37484 12.1667C4.70956 12.1667 3.30018 11.5899 2.14671 10.4365C0.99324 9.28299 0.416504 7.87361 0.416504 6.20833C0.416504 4.54306 0.99324 3.13368 2.14671 1.98021C3.30018 0.826736 4.70956 0.25 6.37484 0.25C8.04012 0.25 9.44949 0.826736 10.603 1.98021C11.7564 3.13368 12.3332 4.54306 12.3332 6.20833C12.3332 6.88056 12.2262 7.51458 12.0123 8.11042C11.7984 8.70625 11.5082 9.23333 11.1415 9.69167L16.9165 15.4667L15.6332 16.75ZM6.37484 10.3333C7.52067 10.3333 8.49463 9.93229 9.29671 9.13021C10.0988 8.32812 10.4998 7.35417 10.4998 6.20833C10.4998 5.0625 10.0988 4.08854 9.29671 3.28646C8.49463 2.48438 7.52067 2.08333 6.37484 2.08333C5.229 2.08333 4.25505 2.48438 3.45296 3.28646C2.65088 4.08854 2.24984 5.0625 2.24984 6.20833C2.24984 7.35417 2.65088 8.32812 3.45296 9.13021C4.25505 9.93229 5.229 10.3333 6.37484 10.3333Z" fill="#202123" fill-opacity="0.5"/>
</svg>
